# xmcd CD database file
#
# Track frame offsets:
#	187
#	14699
#	32319
#	49512
#	64994
#	85907
#	105589
#	125777
#	151412
#	167624
#	183672
#
# Disc length: 2643 seconds
#
# Revision: 0
# Processed by: cddbd v1.5.1PL2 Copyright (c) Steve Scherf et al.
# Submitted via: CDex 1.60beta1-cs1
#
DISCID=8c0a510b
DTITLE=The Brothers - Stan Getz/Zoot Sims
DYEAR=1952
DGENRE=Jazz
TTITLE0=Five Brothers
TTITLE1=Battle Of The Saxes
TTITLE2=Four And One Moore
TTITLE3=Battleground
TTITLE4=The Red Door
TTITLE5=Zootcase
TTITLE6=Tangerine
TTITLE7=Morning Fun
TTITLE8=Five Brothers (Alternate Take)
TTITLE9=Four And One Moore (Alternate Take)
TTITLE10=Battleground (Alternate Take)
EXTD=YEAR: 1952
EXTT0=
EXTT1=
EXTT2=
EXTT3=
EXTT4=
EXTT5=
EXTT6=
EXTT7=
EXTT8=
EXTT9=
EXTT10=
PLAYORDER=
